<svg width="664" height="463" viewBox="0 0 664 463" fill="none" xmlns="http://www.w3.org/2000/svg">
<g clip-path="url(#clip0_8_11)">
<rect x="76" y="81" width="515" height="314" fill="#D9D9D9"/>
<path d="M175.758 168.782C175.758 168.782 160.934 163.312 153.912 163.312C153.241 163.312 152.577 163.39 151.914 163.531C147.42 164.484 143.285 168.352 141.303 170.462C140.531 171.29 140.086 171.845 140.086 171.845C140.086 171.845 140.133 171.306 140.226 170.36C140.687 165.391 142.388 149.083 145.438 138.643C146.531 134.916 147.787 131.939 149.23 130.493C152.593 127.118 154.146 123.07 154.863 120.054C155.472 117.467 155.472 115.647 155.472 115.647L149.784 113.193L148.731 106.301C148.544 107.114 147.678 108.7 144.767 111.74C144.518 111.998 144.245 112.216 143.956 112.404C139.758 115.045 131.199 110.45 126.588 107.559C128.507 100.878 131.987 94.7678 138.307 93.7677C153.131 91.4235 153.131 82.8281 162.494 92.2049C163.267 92.9784 164.047 93.7208 164.827 94.4397C167.823 100.175 168.915 107.864 169.305 113.209C169.586 116.952 169.516 119.554 169.516 119.554C169.516 119.554 173.417 142.996 179.659 147.684C185.901 152.372 175.758 168.782 175.758 168.782Z" fill="#2F2E41"/>
<path d="M146.89 131.275L136.347 146.761L160.153 153.154V131.275H146.89Z" fill="#FFB6B6"/>
<path opacity="0.1" d="M146.89 131.275L136.347 146.761L160.153 153.154V131.275H146.89Z" fill="black"/>
<path d="M543.207 378.933C544.339 378.483 545.781 381.017 546.753 380.566C547.722 380.117 546.628 377.444 547.514 373.957C547.674 373.329 548.681 369.366 550.337 369.184C553.478 368.84 556.189 382.381 560.881 382.265C561.911 382.24 563.146 381.554 566.348 381.367C567.621 381.292 568.313 381.349 568.673 381.805C569.184 382.453 568.58 383.34 567.973 385.532C567.062 388.819 567.78 389.133 566.834 391.587C566.132 393.408 565.368 394.192 565.756 394.76C566.306 395.564 568.192 394.515 569.012 395.374C569.849 396.25 569.012 398.522 568.136 400.032C566.494 402.864 564.244 403.831 562.347 405.21C560.285 406.709 557.676 409.395 555.77 414.581L540.514 461.223C543.442 451.496 551.028 424.49 553.444 414.142C554.142 411.155 554.759 408.056 553.16 405.407C551.621 402.857 548.213 401.033 545.084 397.132C544.718 396.677 543.717 395.395 544.126 394.54C544.465 393.833 545.459 394.061 545.784 393.406C546.221 392.527 544.787 391.403 543.694 389.153C542.923 387.567 542.714 386.228 542.534 385.076C542.48 384.729 541.701 379.532 543.207 378.933Z" fill="#F2F2F2"/>
<path d="M579.388 437.683C579.935 438.11 579.109 439.55 579.611 439.897C580.111 440.244 581.105 438.935 583.069 438.364C583.423 438.261 585.656 437.613 586.223 438.375C587.298 439.819 581.444 445.059 582.855 447.332C583.164 447.831 583.856 448.24 584.872 449.76C585.276 450.364 585.448 450.721 585.328 451.029C585.158 451.467 584.549 451.426 583.3 451.76C581.426 452.261 581.479 452.705 580.004 452.948C578.909 453.128 578.304 452.979 578.138 453.333C577.903 453.836 578.961 454.46 578.777 455.111C578.589 455.775 577.233 456.019 576.241 456.024C574.379 456.035 573.256 455.208 572.033 454.673C570.704 454.092 568.634 453.584 565.543 454.144L538.283 460.103C543.895 458.735 559.319 454.672 565.087 452.874C566.752 452.355 568.449 451.764 569.286 450.214C570.091 448.722 570.002 446.52 571.011 443.857C571.129 443.545 571.468 442.684 572.005 442.638C572.449 442.6 572.624 443.155 573.039 443.126C573.596 443.087 573.733 442.057 574.52 440.871C575.075 440.035 575.671 439.545 576.183 439.125C576.338 438.998 578.66 437.115 579.388 437.683Z" fill="#F2F2F2"/>
<path d="M566.542 431.677L569.152 428.976L569.174 428.635C569.274 427.058 569.698 425.771 570.434 424.807C570.551 424.654 570.676 424.507 570.803 424.356C571.307 423.762 571.934 423.023 572.224 421.821C572.384 421.15 572.645 419.51 571.59 418.922C571.308 418.761 571.026 418.729 570.774 418.753C570.779 418.703 570.783 418.651 570.788 418.596C570.841 417.919 570.756 417.546 570.675 417.187C570.612 416.911 570.548 416.626 570.537 416.061C570.532 415.814 570.54 415.606 570.547 415.431C570.565 414.901 570.56 414.247 569.991 413.819C569.368 413.382 568.669 413.637 568.206 413.805C567.379 414.105 566.884 414.398 566.555 414.593C566.435 414.664 566.3 414.744 566.249 414.761C565.835 414.897 564.465 413.411 563.946 412.855C562.785 411.601 561.78 410.516 560.655 410.991C559.85 411.33 559.489 412.322 559.555 414.021C559.576 414.549 559.674 415.015 559.78 415.402C559.473 415.365 559.136 415.412 558.826 415.656C558.094 416.233 558.156 417.427 559.006 419.206C559.216 419.649 559.501 420.243 560.066 420.86C560.332 421.15 560.599 421.377 560.83 421.567C560.729 421.708 560.647 421.881 560.612 422.098C560.51 422.737 560.854 423.344 561.66 423.886C562.538 424.494 563.357 424.87 564.079 425.203C564.709 425.494 565.25 425.747 565.594 426.051C566.223 426.624 566.325 427.563 566.394 428.73L566.542 431.677Z" fill="#F2F2F2"/>
<path d="M578.58 412.89L580.526 416.104L580.85 416.211C582.347 416.708 583.483 417.446 584.228 418.404C584.346 418.556 584.456 418.714 584.569 418.875C585.015 419.514 585.57 420.309 586.658 420.895C587.265 421.22 588.783 421.889 589.618 421.016C589.845 420.784 589.948 420.518 589.988 420.268C590.036 420.286 590.085 420.303 590.137 420.322C590.777 420.544 591.159 420.557 591.527 420.57C591.809 420.579 592.101 420.589 592.648 420.721C592.889 420.78 593.088 420.84 593.255 420.891C593.762 421.043 594.395 421.204 594.953 420.761C595.533 420.268 595.464 419.526 595.419 419.035C595.339 418.159 595.182 417.604 595.077 417.236C595.039 417.102 594.996 416.951 594.992 416.897C594.966 416.461 596.748 415.511 597.417 415.15C598.923 414.343 600.226 413.644 600.053 412.434C599.929 411.568 599.063 410.967 597.405 410.6C596.889 410.486 596.415 410.463 596.014 410.468C596.127 410.179 596.167 409.841 596.01 409.48C595.638 408.624 594.47 408.381 592.536 408.753C592.055 408.844 591.409 408.97 590.67 409.36C590.322 409.545 590.035 409.746 589.793 409.921C589.683 409.788 589.536 409.664 589.335 409.576C588.744 409.315 588.07 409.494 587.343 410.137C586.532 410.833 585.961 411.532 585.457 412.146C585.016 412.683 584.635 413.143 584.254 413.399C583.54 413.863 582.608 413.724 581.463 413.495L578.58 412.89Z" fill="#F2F2F2"/>
<path d="M586.829 405.368L589.439 402.668L589.461 402.327C589.561 400.75 589.985 399.463 590.721 398.499C590.838 398.345 590.963 398.198 591.09 398.048C591.594 397.454 592.221 396.715 592.511 395.513C592.671 394.841 592.932 393.202 591.877 392.614C591.595 392.453 591.313 392.421 591.061 392.445C591.066 392.394 591.07 392.343 591.075 392.288C591.128 391.61 591.043 391.237 590.962 390.878C590.9 390.602 590.835 390.317 590.824 389.753C590.819 389.506 590.827 389.298 590.834 389.122C590.852 388.592 590.847 387.939 590.278 387.51C589.655 387.074 588.956 387.328 588.493 387.496C587.667 387.796 587.171 388.09 586.842 388.284C586.722 388.356 586.587 388.435 586.536 388.453C586.122 388.588 584.752 387.103 584.233 386.547C583.072 385.293 582.067 384.208 580.942 384.682C580.137 385.021 579.776 386.013 579.842 387.712C579.863 388.241 579.961 388.706 580.067 389.094C579.76 389.057 579.423 389.104 579.114 389.348C578.381 389.925 578.443 391.119 579.293 392.897C579.503 393.34 579.788 393.934 580.353 394.551C580.619 394.842 580.886 395.068 581.117 395.258C581.016 395.399 580.934 395.573 580.9 395.79C580.797 396.428 581.141 397.036 581.947 397.578C582.825 398.186 583.644 398.562 584.366 398.895C584.996 399.186 585.537 399.438 585.881 399.743C586.51 400.316 586.613 401.254 586.681 402.422L586.829 405.368Z" fill="#F2F2F2"/>
<path d="M539.563 460.411L540.481 460.501L541.138 461.141C541.201 461.083 541.359 460.959 541.604 460.764C542.946 459.692 547.032 456.431 552.738 450.731C556.721 446.753 560.55 442.457 564.123 437.963C567.701 433.462 570.144 429.848 572.108 426.944C573.589 424.754 574.965 422.642 576.304 420.584C579.884 415.086 583.266 409.893 587.732 404.702C588.728 403.542 590.804 401.13 594.336 399.588C596.385 398.694 598.621 398.222 600.982 398.188L600.955 396.34C598.349 396.379 595.873 396.903 593.598 397.896C589.681 399.606 587.42 402.234 586.333 403.497C581.789 408.78 578.375 414.023 574.761 419.574C573.425 421.625 572.056 423.728 570.581 425.909C568.635 428.786 566.213 432.368 562.681 436.811C559.152 441.253 555.368 445.495 551.436 449.424C545.803 455.051 541.777 458.263 540.455 459.319C539.749 459.883 539.601 460.001 539.563 460.411Z" fill="#F2F2F2"/>
<path d="M601.868 402.581C601.927 402.627 601.989 402.672 602.054 402.716C603.348 403.61 605.074 403.755 607.182 403.148C608.172 402.861 608.999 402.299 610.647 401.18C610.902 401.007 612.177 400.121 613.647 398.681C614.608 397.74 614.93 397.285 615.021 396.733C615.124 396.12 614.983 395.528 614.718 394.998C614.845 394.872 614.941 394.716 614.994 394.522C615.215 393.721 614.492 393.289 614.105 393.051C613.906 392.934 613.657 392.789 613.423 392.588C613.054 392.273 612.936 391.999 612.756 391.586C612.584 391.191 612.37 390.7 611.906 390.161C610.995 389.094 609.848 388.699 609.47 388.568C607.485 387.874 605.759 388.501 603.761 389.228C603.361 389.374 601.944 389.936 600.439 391.046C599.352 391.847 599.042 392.335 598.868 392.744C598.509 393.58 598.625 394.308 599.022 396.023C599.434 397.816 599.642 398.715 599.91 399.371C600.535 400.896 600.927 401.853 601.868 402.581Z" fill="#F2F2F2"/>
<path d="M543.349 453.73L529.603 453.728L523.063 400.627L543.352 400.629L543.349 453.73Z" fill="#A0616A"/>
<path d="M496.253 453.417C495.825 454.139 495.599 456.469 495.599 457.309C495.599 459.889 497.688 461.981 500.264 461.981H542.835C544.592 461.981 546.018 460.554 546.018 458.794V457.019C546.018 457.019 548.123 451.684 543.788 445.109C543.788 445.109 538.399 450.257 530.347 442.193L527.972 437.885L510.784 450.474L501.257 451.649C499.173 451.906 497.325 451.609 496.253 453.417Z" fill="#2F2E41"/>
<path d="M505.813 453.73L492.066 453.728L485.527 400.627L505.815 400.629L505.813 453.73Z" fill="#A0616A"/>
<path d="M458.716 453.417C458.288 454.139 458.062 456.469 458.062 457.309C458.062 459.889 460.151 461.981 462.728 461.981H505.298C507.056 461.981 508.481 460.554 508.481 458.794V457.019C508.481 457.019 510.587 451.684 506.251 445.109C506.251 445.109 500.863 450.257 492.811 442.193L490.436 437.885L473.248 450.474L463.721 451.649C461.637 451.906 459.788 451.609 458.716 453.417Z" fill="#2F2E41"/>
<path d="M506.868 73.1317C506.868 73.1317 499.708 77.3367 502.056 81.4952C504.404 85.6536 507.678 91.318 505.457 93.1019C503.236 94.8858 499.57 102.751 499.57 102.751C499.57 102.751 483.921 100.562 485.39 112.737C486.859 124.911 494.211 126.571 487.91 131.926C481.608 137.282 494.459 143.688 494.459 143.688C494.459 143.688 503.33 140.919 505.354 132.405C507.378 123.891 503.549 138.915 504.833 139.992C506.117 141.07 511.102 148.17 514.63 138.73C518.157 129.289 514.664 125.628 519.325 120.057C523.987 114.485 527.156 105.473 527.017 103.897C526.878 102.322 532.348 87.9466 523.928 82.3403C515.508 76.734 506.868 73.1317 506.868 73.1317Z" fill="#2F2E41"/>
<path d="M510.156 106.562L505.089 124.601H532.901L523.743 102.375L510.156 106.562Z" fill="#A0616A"/>
<path opacity="0.1" d="M510.156 106.562L505.089 124.601H532.901L523.743 102.375L510.156 106.562Z" fill="black"/>
<path d="M545.786 232.465C545.786 232.465 557.667 247.609 554.967 277.895C552.267 308.181 543.086 440.201 543.086 440.201H527.19L514.465 316.834L506.678 440.201L482.366 439.073L487.931 222.582L545.786 232.465Z" fill="#2F2E41"/>
<path d="M420.278 128.185C416.696 123.302 416.309 117.492 419.412 115.21C422.516 112.927 427.934 115.036 431.517 119.922C432.974 121.853 433.949 124.107 434.359 126.493L449.275 147.376L439.341 154.177L425.691 132.869C423.539 131.763 421.683 130.157 420.278 128.185Z" fill="#A0616A"/>
<path d="M511.552 148.34L469.265 179.146C469.265 179.146 459.882 185.469 449.029 171.709C438.177 157.949 427.245 136.682 427.245 136.682L437.026 129.391L448.948 144.951C448.948 144.951 456.819 150.008 456.99 152.343C457.161 154.678 455.329 155.282 458.127 155.077C460.925 154.872 461.279 153.293 460.989 155.734C460.698 158.175 458.537 160.681 462.131 158.539C465.726 156.398 466.329 158.232 466.329 158.232L494.466 132.69C494.466 132.69 511.174 123.951 513.393 135.058C515.612 146.164 511.552 148.34 511.552 148.34Z" fill="#B2722A"/>
<path d="M506.095 122.407H530.864L553.617 158.102L544.166 207.587L550.377 239.226L487.151 222.582L492.125 220.609L494.755 200.286L483.414 165.605L493.135 137.009L506.095 122.407Z" fill="#B2722A"/>
<path d="M533.513 93.7079C533.513 102.972 526.014 110.482 516.764 110.482C507.514 110.482 500.015 102.972 500.015 93.7079C500.015 84.4437 507.514 76.9337 516.764 76.9337C526.014 76.9337 533.513 84.4437 533.513 93.7079Z" fill="#A0616A"/>
<path d="M510.343 74.9767C510.343 74.9767 507.552 82.8047 512.018 84.4821C516.485 86.1595 522.626 88.3961 522.068 91.1918C521.51 93.9875 523.743 102.375 523.743 102.375C523.743 102.375 510.343 110.762 519.276 119.149C528.209 127.536 534.909 124.08 533.513 132.238C532.117 140.396 546.075 137.041 546.075 137.041C546.075 137.041 551.1 129.213 547.192 121.385C543.283 113.557 549.983 127.536 551.658 127.536C553.333 127.536 561.707 129.773 558.358 120.267C555.008 110.762 549.983 110.203 549.983 102.934C549.983 95.6649 546.633 86.7187 545.517 85.6004C544.4 84.4821 539.375 69.9444 529.326 71.0627C519.276 72.181 510.343 74.9767 510.343 74.9767Z" fill="#2F2E41"/>
<path d="M531.995 259.307C530.424 265.405 526.008 269.537 522.133 268.534C518.258 267.532 516.391 261.777 517.963 255.676C518.558 253.231 519.729 250.963 521.378 249.064L528.362 223.308L540.36 226.848L532.202 251.863C532.728 254.325 532.656 256.877 531.995 259.307Z" fill="#A0616A"/>
<path d="M528.813 148.781C528.813 148.781 535.609 130.388 543.057 131.585C550.506 132.783 557.297 144.344 557.297 144.344L551.912 209.773L537.122 247.111L521.434 240.917L529.583 203.602L528.813 148.781Z" fill="#B2722A"/>
<path d="M116.197 453.078L130.484 453.076L137.28 397.888L116.194 397.89L116.197 453.078Z" fill="#FFB6B6"/>
<path d="M165.144 452.753C165.589 453.503 165.824 455.925 165.824 456.798C165.824 459.48 163.653 461.654 160.975 461.654H116.732C114.905 461.654 113.424 460.171 113.424 458.341V456.496C113.424 456.496 111.235 450.952 115.741 444.118C115.741 444.118 121.342 449.469 129.71 441.088L132.178 436.61L150.041 449.694L159.943 450.915C162.109 451.182 164.03 450.874 165.144 452.753Z" fill="#2F2E41"/>
<path d="M87.02 422.548L97.0401 432.747L141.089 398.895L126.3 383.843L87.02 422.548Z" fill="#FFB6B6"/>
<path d="M121.578 457.265C121.356 458.109 119.797 459.975 119.176 460.587C117.267 462.468 114.197 462.443 112.318 460.531L81.2903 428.944C80.0092 427.64 80.0262 425.542 81.3286 424.259L82.6417 422.965C82.6417 422.965 85.0532 417.515 93.0777 415.939C93.0777 415.939 93.1965 423.69 105.031 423.787L109.949 422.409L113.163 444.338L119.238 452.263C120.568 453.997 122.134 455.152 121.578 457.265Z" fill="#2F2E41"/>
<path d="M175.709 270.364L141.06 184.813L160.436 181.911L186.237 260.422L190.638 271.98C192.798 274.019 194.439 276.547 195.424 279.351C197.985 286.337 196.463 293.32 192.025 294.952C187.588 296.583 181.916 292.245 179.357 285.261C178.296 282.484 177.914 279.492 178.244 276.537L175.857 270.305L175.709 270.364Z" fill="#FFB6B6"/>
<path d="M164.709 160.334L182.375 232.127C182.375 232.127 163.242 225.511 154.711 237.06C154.711 237.06 135.271 163.952 139.209 158.622C143.146 153.292 162.653 151.845 164.586 159.51" fill="#E6E6E6"/>
<path d="M173.725 224.133L186.209 344.468L133.153 414.012L119.889 403.854L152.269 343.296L115.988 261.64C115.988 261.64 121.45 224.914 123.79 220.226C126.131 215.537 173.725 224.133 173.725 224.133Z" fill="#2F2E41"/>
<path d="M123.01 254.607L115.988 261.64L110.917 422.998L138.225 426.124L144.661 296.067L123.01 254.607Z" fill="#2F2E41"/>
<path d="M139.005 140.914L159.291 147.947L176.456 183.891V229.027C176.456 229.027 176.456 233.9 170.214 231.556C163.972 229.212 139.785 219.835 139.785 219.835C139.785 219.835 124.961 229.212 121.06 226.868C117.158 224.523 117.158 223.034 117.158 219.872C117.158 216.709 112.867 188.188 112.867 188.188L126.911 152.244L139.005 140.914Z" fill="#E6E6E6"/>
<path d="M132.466 269.464L110.831 179.721H130.422L144.347 261.19L146.992 273.273C148.828 275.609 150.077 278.352 150.637 281.272C152.138 288.56 149.602 295.241 144.972 296.197C140.343 297.154 135.373 292.023 133.874 284.737C133.235 281.833 133.299 278.818 134.062 275.944L132.621 269.427L132.466 269.464Z" fill="#FFB6B6"/>
<path d="M136.274 159.277L140.648 218.791C140.648 218.791 127.384 217.228 117.241 227.387C117.241 227.387 106.625 158.495 111.307 153.807C115.988 149.119 135.494 150.577 136.274 158.443" fill="#E6E6E6"/>
<path d="M399.954 182.456H219.96C214.301 182.456 209.698 177.846 209.698 172.178V145.069C209.698 139.402 214.301 134.791 219.96 134.791H410.216V172.178C410.216 177.846 405.613 182.456 399.954 182.456Z" fill="#E6E6E6"/>
<path d="M446.808 124.666C446.61 124.666 446.412 124.591 446.26 124.441C445.953 124.137 445.95 123.642 446.253 123.336C448.304 121.257 449.423 118.503 449.406 115.581C449.388 112.659 448.236 109.919 446.16 107.865C444.101 105.827 441.377 104.707 438.485 104.707C438.462 104.707 438.44 104.707 438.417 104.708C435.499 104.725 432.763 105.879 430.713 107.958C430.41 108.266 429.916 108.268 429.61 107.965C429.303 107.662 429.3 107.167 429.603 106.86C431.946 104.484 435.073 103.165 438.408 103.145C438.434 103.144 438.46 103.144 438.485 103.144C441.791 103.144 444.903 104.425 447.257 106.753C449.629 109.101 450.946 112.232 450.966 115.572C450.987 118.911 449.707 122.059 447.363 124.434C447.21 124.589 447.009 124.666 446.808 124.666Z" fill="#3F3D56"/>
<path d="M353.26 162.921H266.654C264.503 162.921 262.753 161.169 262.753 159.014C262.753 156.86 264.503 155.107 266.654 155.107H353.26C355.411 155.107 357.161 156.86 357.161 159.014C357.161 161.169 355.411 162.921 353.26 162.921Z" fill="white"/>
<path d="M439.085 117.729C436.934 117.729 435.184 115.976 435.184 113.822C435.184 111.668 436.934 109.915 439.085 109.915C441.236 109.915 442.986 111.668 442.986 113.822C442.986 115.976 441.236 117.729 439.085 117.729ZM439.085 111.478C437.794 111.478 436.744 112.53 436.744 113.822C436.744 115.115 437.794 116.166 439.085 116.166C440.375 116.166 441.425 115.115 441.425 113.822C441.425 112.53 440.375 111.478 439.085 111.478Z" fill="#3F3D56"/>
<path d="M257.485 278.177H194.68C191.555 278.177 189.022 280.714 189.022 283.844V350.65C189.022 353.78 191.555 356.317 194.68 356.317H257.485C260.61 356.317 263.143 353.78 263.143 350.65V283.844C263.143 280.714 260.61 278.177 257.485 278.177Z" fill="white"/>
<path d="M257.485 357.099H194.68C191.13 357.099 188.242 354.206 188.242 350.65V283.844C188.242 280.289 191.13 277.396 194.68 277.396H257.485C261.035 277.396 263.924 280.289 263.924 283.844V350.65C263.924 354.206 261.035 357.099 257.485 357.099ZM194.68 278.959C191.99 278.959 189.802 281.15 189.802 283.844V350.65C189.802 353.344 191.99 355.536 194.68 355.536H257.485C260.175 355.536 262.363 353.344 262.363 350.65V283.844C262.363 281.15 260.175 278.959 257.485 278.959H194.68Z" fill="#E6E6E6"/>
<path d="M228.033 287.554H199.165V299.868H228.033V287.554Z" fill="#E6E6E6"/>
<path d="M249.411 323.889H226.161C224.397 323.889 222.962 322.452 222.962 320.685V313.997C222.962 312.231 224.397 310.794 226.161 310.794H249.411C251.175 310.794 252.61 312.231 252.61 313.997V320.685C252.61 322.452 251.175 323.889 249.411 323.889Z" fill="#E6E6E6"/>
<path d="M229.906 344.596H206.655C204.676 344.596 203.066 342.984 203.066 341.001V334.314C203.066 332.332 204.676 330.719 206.655 330.719H229.906C231.885 330.719 233.495 332.332 233.495 334.314V341.001C233.495 342.984 231.885 344.596 229.906 344.596ZM206.655 332.282C205.537 332.282 204.626 333.193 204.626 334.314V341.001C204.626 342.121 205.537 343.033 206.655 343.033H229.906C231.024 343.033 231.934 342.121 231.934 341.001V334.314C231.934 333.193 231.024 332.282 229.906 332.282H206.655Z" fill="#E6E6E6"/>
<path d="M218.67 295.759H206.967C205.892 295.759 205.016 294.883 205.016 293.805C205.016 292.728 205.892 291.852 206.967 291.852H218.67C219.746 291.852 220.621 292.728 220.621 293.805C220.621 294.883 219.746 295.759 218.67 295.759Z" fill="white"/>
<path d="M244.418 319.201H232.715C231.639 319.201 230.764 318.325 230.764 317.247C230.764 316.17 231.639 315.294 232.715 315.294H244.418C245.493 315.294 246.369 316.17 246.369 317.247C246.369 318.325 245.493 319.201 244.418 319.201Z" fill="white"/>
<path d="M223.352 339.517H211.648C210.573 339.517 209.698 338.641 209.698 337.564C209.698 336.486 210.573 335.61 211.648 335.61H223.352C224.427 335.61 225.302 336.486 225.302 337.564C225.302 338.641 224.427 339.517 223.352 339.517Z" fill="#E6E6E6"/>
<path d="M268.224 316.955C280.937 315.616 292.994 309.961 302.315 301.225C312.29 291.877 318.532 279.013 320.024 265.434C320.895 257.508 320.202 249.468 317.877 241.837C317.437 240.394 315.221 241.149 315.661 242.594C319.62 255.587 318.618 269.951 313.024 282.318C307.861 293.733 298.775 302.985 287.685 308.724C281.584 311.88 274.891 313.897 268.063 314.616C266.57 314.774 266.72 317.114 268.224 316.955Z" fill="#3F3D56"/>
<path d="M305.544 249.489L313.841 231.66L312.017 232.003L325.88 246.389C326.928 247.477 328.48 245.72 327.44 244.641L313.577 230.255C313.058 229.717 312.055 229.949 311.753 230.599L303.456 248.428C302.82 249.795 304.907 250.858 305.544 249.489Z" fill="#3F3D56"/>
<path d="M251.44 317.247C256.611 317.247 260.803 313.049 260.803 307.871C260.803 302.692 256.611 298.494 251.44 298.494C246.269 298.494 242.077 302.692 242.077 307.871C242.077 313.049 246.269 317.247 251.44 317.247Z" fill="#B2722A"/>
<path d="M254.74 303.126C254.354 303.02 254.057 303.259 253.917 303.594C253.054 305.663 252.191 307.733 251.328 309.802C250.426 308.486 249.524 307.17 248.622 305.855C248.138 305.148 246.978 305.818 247.467 306.531C248.608 308.196 249.75 309.861 250.892 311.526C251.241 312.036 251.891 311.9 252.114 311.366C253.145 308.894 254.176 306.422 255.207 303.95C255.346 303.616 255.056 303.213 254.74 303.126Z" fill="white"/>
<path d="M664 461.685H0V463H664V461.685Z" fill="#E6E6E6"/>
<path d="M237.481 190.661H209.223C204.967 190.661 201.505 187.194 201.505 182.932V154.631C201.505 150.37 204.967 146.903 209.223 146.903H237.481C241.736 146.903 245.198 150.37 245.198 154.631V182.932C245.198 187.194 241.736 190.661 237.481 190.661ZM209.223 148.892C206.062 148.892 203.491 151.466 203.491 154.631V182.932C203.491 186.097 206.062 188.672 209.223 188.672H237.481C240.641 188.672 243.212 186.097 243.212 182.932V154.631C243.212 151.466 240.641 148.892 237.481 148.892H209.223Z" fill="#3F3D56"/>
<path d="M237.46 182.208H220.302C214.592 182.208 209.946 177.555 209.946 171.836V154.653L237.46 182.208Z" fill="#B2722A"/>
<path d="M400.642 34.3815H378.439C375.095 34.3815 372.375 31.6573 372.375 28.3089V6.07261C372.375 2.7242 375.095 0 378.439 0H400.642C403.985 0 406.705 2.72421 406.705 6.07261V28.3089C406.705 31.6573 403.985 34.3815 400.642 34.3815ZM378.439 1.56279C375.956 1.56279 373.936 3.58573 373.936 6.07261V28.3089C373.936 30.7957 375.956 32.8187 378.439 32.8187H400.642C403.125 32.8187 405.145 30.7957 405.145 28.3089V6.07261C405.145 3.58572 403.125 1.56279 400.642 1.56279H378.439Z" fill="#E6E6E6"/>
<path d="M400.625 27.7396H387.144C382.658 27.7396 379.007 24.0837 379.007 19.5903V6.08942L400.625 27.7396Z" fill="#B2722A"/>
<path d="M451.356 82.8281H429.154C425.81 82.8281 423.09 80.1039 423.09 76.7555V54.5193C423.09 51.1709 425.81 48.4467 429.154 48.4467H451.356C454.7 48.4467 457.42 51.1709 457.42 54.5193V76.7555C457.42 80.1039 454.7 82.8281 451.356 82.8281ZM429.154 50.0094C426.67 50.0094 424.65 52.0324 424.65 54.5193V76.7555C424.65 79.2424 426.67 81.2653 429.154 81.2653H451.356C453.84 81.2653 455.86 79.2424 455.86 76.7555V54.5193C455.86 52.0324 453.84 50.0094 451.356 50.0094H429.154Z" fill="#E6E6E6"/>
<path d="M430.112 55.4792V75.7955H450.398L430.112 55.4792Z" fill="#B2722A"/>
<path d="M376.276 161.191V133.396C376.276 129.21 379.677 125.805 383.856 125.805H411.609C415.789 125.805 419.189 129.21 419.189 133.396V161.191C419.189 165.377 415.789 168.782 411.609 168.782H383.856C379.677 168.782 376.276 165.377 376.276 161.191ZM383.856 127.758C380.752 127.758 378.227 130.287 378.227 133.396V161.191C378.227 164.3 380.752 166.828 383.856 166.828H411.609C414.713 166.828 417.238 164.3 417.238 161.191V133.396C417.238 130.287 414.713 127.758 411.609 127.758H383.856Z" fill="#3F3D56"/>
<path d="M385.054 134.596L410.411 134.596V159.991L385.054 134.596Z" fill="#B2722A"/>
<path d="M151.933 138.189C162.957 138.189 171.895 129.238 171.895 118.197C171.895 107.156 162.957 98.2048 151.933 98.2048C140.908 98.2048 131.971 107.156 131.971 118.197C131.971 129.238 140.908 138.189 151.933 138.189Z" fill="#FFB6B6"/>
<path d="M178.879 110.958C174.978 114.865 171.857 118.772 171.857 118.772L170.296 112.521C170.296 112.521 169.937 112.787 169.305 113.209C166.832 114.897 160.192 119.14 154.863 120.054C152.492 120.46 150.385 120.202 149.012 118.772C146.102 115.733 145.235 114.146 145.048 113.334L143.995 120.226L138.307 122.679C138.307 122.679 138.307 131.259 144.549 137.526C144.853 137.831 145.15 138.206 145.438 138.643C148.419 143.144 150.557 154.162 151.914 163.531C153.116 171.861 153.693 178.877 153.693 178.877C153.693 178.877 147.787 171.47 141.303 170.462C140.944 170.407 140.585 170.368 140.226 170.36C140.109 170.345 139.985 170.345 139.867 170.345C132.845 170.345 118.021 175.814 118.021 175.814C118.021 175.814 107.878 159.405 114.12 154.717C120.362 150.028 124.263 126.586 124.263 126.586C124.263 126.586 124.005 116.553 126.588 107.559C128.507 100.878 131.987 94.7678 138.307 93.7677C153.131 91.4235 153.131 82.8281 162.494 92.2049C163.267 92.9784 164.047 93.7208 164.827 94.4397C173.55 102.472 182.46 107.372 178.879 110.958Z" fill="#2F2E41"/>
<path d="M439.215 42.4765C440.383 38.2833 440.107 33.7577 438.516 29.7125C436.814 25.3838 433.534 21.7971 429.434 19.6249C427.041 18.3571 424.416 17.5701 421.716 17.3512C421.205 17.3098 421.166 18.1061 421.677 18.1476C426.274 18.5202 430.684 20.6358 433.888 23.955C436.845 27.0188 438.629 31.054 439.052 35.2839C439.285 37.6107 439.084 39.9826 438.456 42.2345C438.319 42.7269 439.077 42.9726 439.215 42.4765Z" fill="#E6E6E6"/>
<path d="M422.587 22.2141L417.997 17.3553L417.877 17.9759L424.154 15.3869C424.629 15.1911 424.269 14.4798 423.798 14.6741L417.521 17.2631C417.286 17.3599 417.234 17.7065 417.401 17.8837L421.991 22.7425C422.343 23.1149 422.94 22.5872 422.587 22.2141Z" fill="#E6E6E6"/>
<path d="M387.603 44.0667C386.435 48.2599 386.711 52.7855 388.302 56.8307C390.004 61.1594 393.284 64.746 397.384 66.9183C399.777 68.1861 402.402 68.9731 405.102 69.192C405.613 69.2334 405.652 68.4371 405.141 68.3956C400.543 68.023 396.134 65.9074 392.93 62.5882C389.973 59.5243 388.189 55.4892 387.766 51.2593C387.533 48.9325 387.734 46.5606 388.362 44.3087C388.499 43.8163 387.741 43.5706 387.603 44.0667Z" fill="#E6E6E6"/>
<path d="M404.231 64.3291L408.821 69.1879L408.941 68.5673L402.664 71.1563C402.189 71.3521 402.549 72.0634 403.02 71.8691L409.297 69.2801C409.532 69.1833 409.584 68.8367 409.417 68.6595L404.827 63.8007C404.475 63.4283 403.878 63.956 404.231 64.3291Z" fill="#E6E6E6"/>
</g>
<defs>
<clipPath id="clip0_8_11">
<rect width="664" height="463" fill="white"/>
</clipPath>
</defs>
</svg>
