<svg width="64" height="64" viewBox="0 0 64 64" fill="none" xmlns="http://www.w3.org/2000/svg">
<g clip-path="url(#clip0_16_11)">
<path d="M56 0H8C3.58172 0 0 3.58172 0 8V56C0 60.4183 3.58172 64 8 64H56C60.4183 64 64 60.4183 64 56V8C64 3.58172 60.4183 0 56 0Z" fill="white"/>
<path d="M59.1186 4.88135H4.88135V32H59.1186V4.88135Z" fill="#B2722A"/>
<path d="M42.4407 38.7797C43.4142 38.7797 44.2034 38.0148 44.2034 37.0713C44.2034 36.1277 43.4142 35.3628 42.4407 35.3628C41.4672 35.3628 40.678 36.1277 40.678 37.0713C40.678 38.0148 41.4672 38.7797 42.4407 38.7797Z" fill="#B2722A"/>
<path d="M27.6472 7.19873H32.3175V21.5439C32.3175 23.1546 31.9328 24.5639 31.1634 25.7719C30.4012 26.9799 29.3334 27.9219 27.96 28.5978C26.5866 29.2665 24.9867 29.6009 23.1603 29.6009C21.3267 29.6009 19.7233 29.2665 18.3499 28.5978C16.9765 27.9219 15.9086 26.9799 15.1464 25.7719C14.3842 24.5639 14.0032 23.1546 14.0032 21.5439V7.19873H18.6734V21.1448C18.6734 21.9861 18.8568 22.7339 19.2235 23.3883C19.5974 24.0426 20.1223 24.5567 20.7982 24.9306C21.4741 25.3045 22.2615 25.4915 23.1603 25.4915C24.0663 25.4915 24.8537 25.3045 25.5224 24.9306C26.1983 24.5567 26.7196 24.0426 27.0863 23.3883C27.4603 22.7339 27.6472 21.9861 27.6472 21.1448V7.19873ZM37.0461 7.19873L41.5007 14.7272H41.6732L46.1493 7.19873H51.4236L44.6824 18.2434L51.5746 29.2881H46.2033L41.6732 21.7488H41.5007L36.9706 29.2881H31.6209L38.5345 18.2434L31.7503 7.19873H37.0461Z" fill="white"/>
<path d="M6.77271 55.8644V36.1417H9.74843V53.3028H18.6853V55.8644H6.77271ZM26.1901 56.1627C24.7327 56.1627 23.4776 55.8514 22.4247 55.2287C21.3782 54.5996 20.5693 53.7169 19.9979 52.5805C19.4329 51.4377 19.1504 50.0991 19.1504 48.5647C19.1504 47.0495 19.4329 45.7141 19.9979 44.5585C20.5693 43.4029 21.3654 42.5009 22.3862 41.8524C23.4134 41.204 24.614 40.8798 25.9878 40.8798C26.8225 40.8798 27.6314 41.0178 28.4147 41.2939C29.1979 41.5699 29.9009 42.0033 30.5237 42.594C31.1465 43.1846 31.6376 43.9518 31.9971 44.8956C32.3567 45.8329 32.5364 46.9725 32.5364 48.3143V49.3351H20.7779V47.1779H29.7148C29.7148 46.4204 29.5607 45.7494 29.2525 45.1652C28.9443 44.5746 28.511 44.1091 27.9524 43.7689C27.4003 43.4286 26.7518 43.2584 26.0071 43.2584C25.1982 43.2584 24.492 43.4575 23.8885 43.8555C23.2914 44.2471 22.8292 44.7608 22.5017 45.3964C22.1807 46.0255 22.0202 46.7093 22.0202 47.4476V49.1329C22.0202 50.1216 22.1936 50.9626 22.5402 51.656C22.8933 52.3494 23.3845 52.879 24.0137 53.245C24.6429 53.6045 25.3779 53.7843 26.219 53.7843C26.7647 53.7843 27.2623 53.7072 27.7117 53.5531C28.1611 53.3926 28.5495 53.1551 28.8769 52.8405C29.2043 52.5259 29.4547 52.1375 29.6281 51.6753L32.3534 52.1664C32.1351 52.9689 31.7435 53.6719 31.1785 54.2752C30.62 54.8724 29.917 55.3377 29.0695 55.6718C28.2285 55.9994 27.2686 56.1627 26.1901 56.1627ZM33.6973 55.8644V41.0724H36.4804V43.4222H36.6345C36.9042 42.6261 37.3792 42.0001 38.0598 41.5443C38.7467 41.082 39.5236 40.8509 40.3903 40.8509C40.5701 40.8509 40.7819 40.8573 41.0259 40.8702C41.2763 40.883 41.4721 40.8991 41.6133 40.9183V43.6725C41.4978 43.6404 41.2924 43.6051 40.997 43.5666C40.7017 43.5217 40.4063 43.4992 40.111 43.4992C39.4305 43.4992 38.8238 43.6436 38.2909 43.9326C37.7645 44.215 37.3471 44.6099 37.039 45.1171C36.7308 45.6179 36.5767 46.1893 36.5767 46.8313V55.8644H33.6973ZM42.0713 55.8644V41.0724H44.9507V55.8644H42.0713ZM43.5254 38.79C43.0246 38.79 42.5945 38.6231 42.2349 38.2893C41.8819 37.949 41.7053 37.5445 41.7053 37.0759C41.7053 36.6008 41.8819 36.1963 42.2349 35.8624C42.5945 35.5222 43.0246 35.3521 43.5254 35.3521C44.0262 35.3521 44.4531 35.5222 44.8062 35.8624C45.1658 36.1963 45.3455 36.6008 45.3455 37.0759C45.3455 37.5445 45.1658 37.949 44.8062 38.2893C44.4531 38.6231 44.0262 38.79 43.5254 38.79ZM57.875 44.6837L55.2651 45.146C55.1561 44.8121 54.9825 44.4943 54.7449 44.1926C54.5139 43.8908 54.1994 43.6436 53.8013 43.451C53.4033 43.2584 52.9057 43.1622 52.3087 43.1622C51.4933 43.1622 50.8127 43.3451 50.2671 43.711C49.7213 44.0706 49.4484 44.5361 49.4484 45.1074C49.4484 45.6018 49.6314 45.9999 49.9974 46.3016C50.3633 46.6034 50.954 46.8505 51.7694 47.0431L54.1191 47.5824C55.4804 47.897 56.4946 48.3817 57.1623 49.0366C57.83 49.6914 58.1641 50.5421 58.1641 51.5886C58.1641 52.4745 57.907 53.2642 57.3933 53.9576C56.8862 54.6446 56.1768 55.1837 55.2651 55.5753C54.3599 55.9669 53.3102 56.1627 52.1161 56.1627C50.4596 56.1627 49.1082 55.8096 48.0617 55.1034C47.0153 54.3908 46.3732 53.3798 46.1357 52.0701L48.9188 51.6463C49.0922 52.3718 49.4484 52.9208 49.9878 53.2931C50.5271 53.659 51.23 53.842 52.0967 53.842C53.0405 53.842 53.7949 53.6462 54.3599 53.2546C54.925 52.8565 55.2076 52.3718 55.2076 51.8004C55.2076 51.3382 55.034 50.9498 54.6874 50.6352C54.3468 50.3206 53.8238 50.0831 53.1175 49.9225L50.6137 49.3736C49.2334 49.0591 48.2126 48.5583 47.5513 47.8713C46.8965 47.1844 46.569 46.3144 46.569 45.2615C46.569 44.3884 46.813 43.6244 47.3009 42.9695C47.7888 42.3147 48.463 41.8043 49.3233 41.4383C50.1836 41.066 51.1691 40.8798 52.2797 40.8798C53.8783 40.8798 55.1365 41.2265 56.0548 41.9199C56.973 42.6068 57.5794 43.5281 57.875 44.6837Z" fill="#3E4040"/>
</g>
<defs>
<clipPath id="clip0_16_11">
<rect width="64" height="64" fill="white"/>
</clipPath>
</defs>
</svg>
